<svg xmlns="http://www.w3.org/2000/svg" width="33.152" height="30" viewBox="0 0 33.152 30"><path d="M31.245,34.083,18.52,26.306a4,4,0,0,0-3.887,0L1.906,34.083A4.3,4.3,0,0,0,0,37.482v15.7A2.62,2.62,0,0,0,2.617,55.8H30.535a2.62,2.62,0,0,0,2.617-2.617v-15.7A4.3,4.3,0,0,0,31.245,34.083ZM2.816,35.572,15.542,27.8a2.285,2.285,0,0,1,2.068,0l12.726,7.777a2.3,2.3,0,0,1,.725.8L17.544,45.385a1.976,1.976,0,0,1-1.936,0L2.091,36.374a2.3,2.3,0,0,1,.725-.8ZM30.535,54.058H2.617a.873.873,0,0,1-.872-.872V38.24l12.9,8.6a3.723,3.723,0,0,0,3.871,0l12.9-8.6V53.186A.873.873,0,0,1,30.535,54.058Z" transform="translate(0 -25.803)" fill="#aaa371"/></svg>