<svg xmlns="http://www.w3.org/2000/svg" width="197" height="40.599" viewBox="0 0 197 40.599"><g transform="translate(-152.806 -453.424)"><path d="M-71.019-14.982V-12.9h-5.887V2.466h-2.4V-12.9h-5.887v-2.078Zm2.954,0h2.39v7.209h9.085v-7.209h2.39V2.466h-2.39v-8.16h-9.085v8.16h-2.39Zm18.485,0h12.736v2.138H-47.272v5.3h9.644v2.019h-9.644V.387h10.608V2.466H-49.579Zm37.208,3.041h-9.276v3.718h8.515v3.041h-8.515v4.5h9.7V2.466H-25.226V-15.041H-12.37Zm4.013-3.1h3.663V-.682H3.986V2.466H-8.358Zm27.226,0h5.268V2.466H20.723V-9.376q0-.511.012-1.431t.012-1.419L17.429,2.466H13.874L10.58-12.226q0,.5.012,1.419T10.6-9.376V2.466H7.19V-15.041h5.328L15.705-1.276ZM30.92-2.938a3.592,3.592,0,0,0,.654,1.793A3.766,3.766,0,0,0,34.63-.064a6.458,6.458,0,0,0,2.1-.285A2.032,2.032,0,0,0,38.269-2.38a1.5,1.5,0,0,0-.761-1.342,8.191,8.191,0,0,0-2.39-.82l-1.855-.416A11.732,11.732,0,0,1,29.481-6.3a4.267,4.267,0,0,1-1.772-3.789A5.057,5.057,0,0,1,29.422-14a7.246,7.246,0,0,1,5.03-1.556,7.655,7.655,0,0,1,4.727,1.467A5.235,5.235,0,0,1,41.23-9.827H37.71a2.511,2.511,0,0,0-1.379-2.245,4.631,4.631,0,0,0-2.129-.439,3.978,3.978,0,0,0-2.259.57A1.815,1.815,0,0,0,31.1-10.35a1.506,1.506,0,0,0,.832,1.4,10.2,10.2,0,0,0,2.283.725l3.021.725a7.814,7.814,0,0,1,3,1.271A4.278,4.278,0,0,1,41.8-2.653a5.043,5.043,0,0,1-1.837,3.985,7.7,7.7,0,0,1-5.191,1.586,8.427,8.427,0,0,1-5.387-1.562,5.187,5.187,0,0,1-1.962-4.294Zm27.059-12.1v3.1H52.735V2.466H49.049V-11.941H43.781v-3.1ZM68.176-.147a4.186,4.186,0,0,0,3.455-1.6,7.158,7.158,0,0,0,1.278-4.561,7.163,7.163,0,0,0-1.278-4.555,4.18,4.18,0,0,0-3.455-1.609,4.236,4.236,0,0,0-3.472,1.6,7.088,7.088,0,0,0-1.3,4.561,7.088,7.088,0,0,0,1.3,4.561A4.236,4.236,0,0,0,68.176-.147Zm8.4-6.164Q76.572-1.6,73.92.91a7.649,7.649,0,0,1-5.744,2.043A7.649,7.649,0,0,1,62.432.91Q59.769-1.6,59.769-6.312q0-4.81,2.664-7.221a7.649,7.649,0,0,1,5.744-2.043,7.649,7.649,0,0,1,5.744,2.043Q76.572-11.122,76.572-6.312Zm3.466-8.73h3.841L90.859-2.82V-15.041h3.413V2.466H90.61L83.451-9.97V2.466H80.038Zm31.34,3.1H102.1v3.718h8.515v3.041H102.1v4.5h9.7V2.466H98.523V-15.041h12.855Z" transform="translate(238 469)" fill="#aaa371"/><path d="M278.236,14.156H275.4v-.325a4.971,4.971,0,0,1,.918-.269V6.923a2.947,2.947,0,0,1-.918-.28V6.318h2.833v.325a2.411,2.411,0,0,1-.4.168,4.157,4.157,0,0,1-.437.112V9.845h3.516V6.923q-.235-.056-.442-.123a3.38,3.38,0,0,1-.4-.157V6.318H282.9v.325a1.85,1.85,0,0,1-.442.174q-.241.062-.476.106v6.639a4.765,4.765,0,0,1,.493.112,2.818,2.818,0,0,1,.425.157v.325h-2.833v-.325a4.079,4.079,0,0,1,.84-.269V10.427H277.4v3.135a4.158,4.158,0,0,1,.437.112,3.229,3.229,0,0,1,.4.157Zm7.826-3.919a5.233,5.233,0,0,1,.241-1.618A3.815,3.815,0,0,1,287,7.332a3.124,3.124,0,0,1,1.114-.845,3.874,3.874,0,0,1,3,0,3.125,3.125,0,0,1,1.114.845,3.815,3.815,0,0,1,.694,1.288,5.557,5.557,0,0,1,0,3.236,3.815,3.815,0,0,1-.694,1.288,3.125,3.125,0,0,1-1.114.845,3.874,3.874,0,0,1-3,0A3.124,3.124,0,0,1,287,13.142a3.815,3.815,0,0,1-.694-1.288A5.232,5.232,0,0,1,286.062,10.237Zm1.2,0a5.792,5.792,0,0,0,.151,1.349,3.548,3.548,0,0,0,.453,1.1,2.3,2.3,0,0,0,.761.745,2.078,2.078,0,0,0,1.086.274,1.8,1.8,0,0,0,1-.274,2.166,2.166,0,0,0,.7-.745,3.81,3.81,0,0,0,.414-1.1,6.236,6.236,0,0,0,.14-1.349,6.006,6.006,0,0,0-.146-1.349,3.454,3.454,0,0,0-.448-1.1,2.3,2.3,0,0,0-.761-.745,2.078,2.078,0,0,0-1.086-.274,1.91,1.91,0,0,0-1.047.274,2.1,2.1,0,0,0-.7.745,3.592,3.592,0,0,0-.392,1.1A7.053,7.053,0,0,0,287.26,10.237Zm13.5,3.919h-3.146v-.325q.246-.09.5-.157a5.149,5.149,0,0,1,.543-.112V6.9h-1.713l-.593,1.6h-.28q-.034-.224-.056-.509t-.039-.582q-.017-.3-.028-.582t-.011-.509h6.5q0,.224-.011.5T302.4,7.4q-.017.3-.034.582t-.05.521h-.291l-.582-1.6h-1.713v6.662q.291.056.543.112a2.744,2.744,0,0,1,.487.157Zm9.763-7.837q-.011.448-.039.9t-.084.912h-.291L309.652,6.9h-2.441V9.867h1.825l.437-.829h.28a19.043,19.043,0,0,1,0,2.262h-.28l-.437-.851h-1.825v3.124h2.575l.549-1.344h.28q.078.47.112.952a8.456,8.456,0,0,1,.011.974h-5.52v-.325a3.7,3.7,0,0,1,.918-.269V6.923a4.613,4.613,0,0,1-.459-.118q-.235-.073-.459-.162V6.318Zm3.448,0h3.068v.325q-.269.1-.537.174a3.909,3.909,0,0,1-.537.106v6.65h2.575l.661-1.8h.291q.034.235.062.543t.045.638q.017.33.017.644t-.011.56h-5.632v-.325a2.867,2.867,0,0,1,.493-.179q.224-.056.425-.09V6.923a3.961,3.961,0,0,1-.493-.118,3.275,3.275,0,0,1-.425-.162Zm19.067,6.46q-.336-.3-.733-.711t-.767-.834q-.37-.425-.683-.817t-.493-.649a3.343,3.343,0,0,0-.694.912,2.365,2.365,0,0,0-.213,1.036,2.181,2.181,0,0,0,.14.789,1.974,1.974,0,0,0,.386.633,1.733,1.733,0,0,0,.593.42,1.858,1.858,0,0,0,.75.151,1.991,1.991,0,0,0,.94-.23A2.235,2.235,0,0,0,333.04,12.778Zm-2.889-5.15a1.338,1.338,0,0,0,.078.431,2.587,2.587,0,0,0,.207.453q.129.224.28.437t.3.381a2.832,2.832,0,0,0,.655-.778,1.743,1.743,0,0,0,.2-1.047,1.03,1.03,0,0,0-.224-.6A.777.777,0,0,0,331,6.654a.885.885,0,0,0-.409.084.734.734,0,0,0-.263.224.852.852,0,0,0-.14.313A1.594,1.594,0,0,0,330.151,7.628Zm4.646,6.527q-.235-.157-.593-.386a5.115,5.115,0,0,1-.784-.644,2.7,2.7,0,0,1-.392.42,2.823,2.823,0,0,1-.554.375,3.269,3.269,0,0,1-.711.269,3.411,3.411,0,0,1-.851.1,3.063,3.063,0,0,1-1.075-.179,2.519,2.519,0,0,1-.817-.481,2.176,2.176,0,0,1-.521-.694,1.9,1.9,0,0,1-.185-.817,2.362,2.362,0,0,1,.2-.991,3.31,3.31,0,0,1,.481-.773,3.706,3.706,0,0,1,.582-.56q.3-.23.5-.375a3.334,3.334,0,0,1-.549-.84,2.137,2.137,0,0,1-.224-.9,1.456,1.456,0,0,1,.112-.554,1.372,1.372,0,0,1,.33-.481,1.688,1.688,0,0,1,.537-.336,1.916,1.916,0,0,1,.722-.129,2.03,2.03,0,0,1,1.192.319,1.06,1.06,0,0,1,.453.924,1.823,1.823,0,0,1-.129.689,2.59,2.59,0,0,1-.33.588,3.333,3.333,0,0,1-.453.493q-.252.224-.5.414a14.72,14.72,0,0,0,1.064,1.176q.6.6,1.276,1.209a2.657,2.657,0,0,0,.224-.414,5.211,5.211,0,0,0,.252-.683,6.46,6.46,0,0,0,.19-.856,4.041,4.041,0,0,0,.039-.924,1.99,1.99,0,0,1-.661-.269V8.558h2.273v.291a2.058,2.058,0,0,1-.739.269,9.3,9.3,0,0,1-.258,1.2,9.535,9.535,0,0,1-.325.946q-.168.409-.319.694t-.241.42q.425.347.834.644a10.471,10.471,0,0,0,.912.588l.616.269v.28Zm10.8-.773a1.147,1.147,0,0,0,.347.23,1.636,1.636,0,0,0,.638.1,2.3,2.3,0,0,0,.672-.1,1.594,1.594,0,0,0,.543-.28,1.366,1.366,0,0,0,.364-.448,1.3,1.3,0,0,0,.134-.6,1.075,1.075,0,0,0-.274-.75,2.792,2.792,0,0,0-.683-.537q-.409-.235-.89-.459a4.926,4.926,0,0,1-.89-.532,2.8,2.8,0,0,1-.683-.739,1.976,1.976,0,0,1-.274-1.08,2.007,2.007,0,0,1,.168-.84,1.751,1.751,0,0,1,.476-.627,2.2,2.2,0,0,1,.733-.4,3.035,3.035,0,0,1,.952-.14,6.77,6.77,0,0,1,1.248.106,3.66,3.66,0,0,1,.89.263,4.054,4.054,0,0,1-.028.442q-.028.252-.067.521t-.084.521q-.045.252-.09.442h-.291l-.448-1.534a1.965,1.965,0,0,0-.509-.134,4.553,4.553,0,0,0-.655-.045,1.3,1.3,0,0,0-.918.319,1.149,1.149,0,0,0-.347.89,1.131,1.131,0,0,0,.274.773,2.818,2.818,0,0,0,.689.56q.414.246.89.476a5.725,5.725,0,0,1,.89.532,2.789,2.789,0,0,1,.689.717,1.826,1.826,0,0,1,.274,1.03,2.23,2.23,0,0,1-.185.918,1.94,1.94,0,0,1-.532.705,2.429,2.429,0,0,1-.851.448,3.841,3.841,0,0,1-1.142.157,4.4,4.4,0,0,1-1.265-.168,2.424,2.424,0,0,1-.795-.358q.011-.19.039-.459t.067-.554q.039-.285.084-.554t.09-.459h.291Zm8.878.179a3.78,3.78,0,0,1,.571.106q.269.073.5.162v.325h-3.068v-.325a2.124,2.124,0,0,1,.459-.168q.235-.056.459-.1V6.923a3.5,3.5,0,0,1-.481-.118q-.224-.073-.437-.162V6.318H353.5q.448,0,.974-.045t1.008-.045a4.915,4.915,0,0,1,1.075.118,2.664,2.664,0,0,1,.935.4,2.1,2.1,0,0,1,.661.745,2.409,2.409,0,0,1,.252,1.159,2.323,2.323,0,0,1-.257,1.131,2.249,2.249,0,0,1-.689.773,2.965,2.965,0,0,1-.98.442,4.557,4.557,0,0,1-1.131.14h-.174q-.118,0-.252-.006t-.257-.017q-.123-.011-.179-.022Zm.761-6.751q-.269,0-.437.011a2.268,2.268,0,0,0-.325.045v3.628a.533.533,0,0,0,.162.028q.106.006.224.017t.229.011h.179a2.509,2.509,0,0,0,.739-.106,1.613,1.613,0,0,0,.61-.341,1.691,1.691,0,0,0,.42-.593,2.144,2.144,0,0,0,.157-.862,1.74,1.74,0,0,0-.521-1.377A2.1,2.1,0,0,0,355.242,6.811Zm7.5,7.345h-2.485v-.325a4.257,4.257,0,0,1,.806-.269L363.9,6.184h.325l2.833,7.378q.224.045.442.1a1.572,1.572,0,0,1,.409.168v.325h-2.866v-.325a4.738,4.738,0,0,1,.459-.157q.235-.067.459-.112l-.761-2.049h-2.676l-.739,2.049a4.062,4.062,0,0,1,.963.269Zm0-3.224H365l-.884-2.374-.213-.963h-.022l-.28.985Z" transform="translate(-70.661 479.734)" fill="#aaa371"/></g></svg>