<svg xmlns="http://www.w3.org/2000/svg" width="29.98" height="30" viewBox="0 0 29.98 30"><path d="M24.415,30a18.614,18.614,0,0,1-8.4-2.238,30.868,30.868,0,0,1-7.683-5.67A30.9,30.9,0,0,1,2.669,14.4,18.652,18.652,0,0,1,.435,6c0-1.722,1.6-3.385,2.294-4.02C3.721,1.066,5.281,0,6.415,0a3.413,3.413,0,0,1,2.08,1.161,19.785,19.785,0,0,1,2.075,2.316c.433.557,2.6,3.406,2.6,4.773,0,1.121-1.267,1.9-2.608,2.725a15.16,15.16,0,0,0-1.442.959c-.413.331-.488.506-.5.546A19.843,19.843,0,0,0,17.937,21.8c.032-.01.207-.079.545-.5a15.155,15.155,0,0,0,.959-1.442c.825-1.341,1.6-2.609,2.725-2.609,1.367,0,4.216,2.162,4.773,2.6a19.785,19.785,0,0,1,2.316,2.075A3.413,3.413,0,0,1,30.415,24c0,1.134-1.066,2.7-1.978,3.694C27.8,28.388,26.137,30,24.415,30ZM6.405,1.5a5.637,5.637,0,0,0-2.66,1.583A4.843,4.843,0,0,0,1.935,6c0,10.093,12.4,22.5,22.48,22.5a4.841,4.841,0,0,0,2.916-1.819,5.675,5.675,0,0,0,1.584-2.671c-.049-.285-.837-1.393-3-3.055a11.748,11.748,0,0,0-3.747-2.2c-.027.008-.2.072-.535.5a15.676,15.676,0,0,0-.919,1.389c-.84,1.367-1.634,2.659-2.787,2.659a1.462,1.462,0,0,1-.545-.106A21.259,21.259,0,0,1,7.218,13.029c-.189-.473-.219-1.213.711-2.056A12.953,12.953,0,0,1,9.771,9.7a15.655,15.655,0,0,0,1.389-.919c.432-.34.5-.508.5-.535A11.749,11.749,0,0,0,9.46,4.5C7.8,2.337,6.69,1.549,6.405,1.5Z" transform="translate(-0.435 0)" fill="#aaa371"/></svg>